<svg xmlns="http://www.w3.org/2000/svg" viewBox="-50 -50 100 100" width="200" height="200" style="background: transparent;">
  <style>
    .spiral {
      fill: none;
      stroke: rgba(255,255,255,0.07);
      stroke-width: 0.5;
      animation: pulseScale 10s ease-in-out infinite;
    }
    @keyframes pulseScale {
      0% { transform: scale(0.95); }
      50% { transform: scale(1.05); }
      100% { transform: scale(0.95); }
    }
  </style>
  <g class="spiral">
    <path d="M 2.488,0.000 L 2.655,0.337 L 2.774,0.716 L 2.837,1.129 L 2.837,1.569 L 2.769,2.025 L 2.628,2.487 L 2.414,2.944 L 2.124,3.384 L 1.760,3.796 L 1.325,4.167 L 0.824,4.486 L 0.262,4.742 L -0.351,4.926 L -1.005,5.027 L -1.690,5.039 L -2.394,4.956 L -3.101,4.773 L -3.800,4.488 L -4.474,4.101 L -5.109,3.614 L -5.690,3.030 L -6.202,2.356 L -6.633,1.601 L -6.969,0.773 L -7.199,-0.114 L -7.314,-1.046 L -7.306,-2.009 L -7.169,-2.986 L -6.899,-3.959 L -6.496,-4.910 L -5.960,-5.821 L -5.297,-6.673 L -4.512,-7.448 L -3.614,-8.130 L -2.616,-8.701 L -1.530,-9.147 L -0.373,-9.455 L 0.837,-9.614 L 2.081,-9.617 L 3.339,-9.456 L 4.588,-9.128 L 5.806,-8.634 L 6.972,-7.976 L 8.062,-7.159 L 9.055,-6.193 L 9.931,-5.090 L 10.670,-3.862 L 11.255,-2.529 L 11.672,-1.109 L 11.907,0.376 L 11.951,1.903 L 11.797,3.446 L 11.442,4.979 L 10.886,6.477 L 10.132,7.913 L 9.187,9.260 L 8.062,10.493 L 6.772,11.587 L 5.332,12.521 L 3.764,13.275 L 2.090,13.829 L 0.336,14.171 L -1.471,14.288 L -3.302,14.172 L -5.126,13.820 L -6.914,13.232 L -8.633,12.410 L -10.254,11.364 L -11.746,10.105 L -13.083,8.649 L -14.237,7.015 L -15.185,5.227 L -15.907,3.311 L -16.386,1.296 L -16.607,-0.787 L -16.561,-2.905 L -16.243,-5.024 L -15.653,-7.108 L -14.793,-9.122 L -13.673,-11.031 L -12.306,-12.801 L -10.708,-14.400 L -8.901,-15.799 L -6.911,-16.969 L -4.767,-17.886 L -2.502,-18.531 L -0.149,-18.887 L 2.253,-18.942 L 4.667,-18.691 L 7.053,-18.130 L 9.370,-17.263 L 11.580,-16.098 L 13.644,-14.649 L 15.525,-12.934 L 17.189,-10.977 L 18.606,-8.805 L 19.746,-6.450 L 20.586,-3.947 L 21.107,-1.335 L 21.296,1.347 L 21.141,4.054 L 20.642,6.743 L 19.798,9.370 L 18.619,11.890 L 17.118,14.262 L 15.314,16.442 L 13.231,18.393 L 10.899,20.079 L 8.351,21.468 L 5.626,22.531 L 2.766,23.248 L -0.186,23.599 L -3.183,23.575 L -6.175,23.168 L -9.115,22.380 L -11.954,21.218 L -14.644,19.695 L -17.139,17.829 L -19.395,15.647 L -21.372,13.178 L -23.033,10.459 L -24.347,7.530 L -25.288,4.436 L -25.833,1.224 L -25.970,-2.054 L -25.689,-5.347 L -24.989,-8.602 L -23.875,-11.764 L -22.360,-14.782 L -20.463,-17.603 L -18.209,-20.181 L -15.630,-22.468 L -12.763,-24.425 L -9.650,-26.015 L -6.339,-27.207 L -2.881,-27.976 L 0.670,-28.305 L 4.258,-28.181 L 7.826,-27.602 L 11.314,-26.570 L 14.666,-25.096 L 17.825,-23.198 L 20.738,-20.902 L 23.354,-18.239 L 25.627,-15.249 L 27.517,-11.975 L 28.987,-8.466 L 30.008,-4.777 L 30.560,-0.965 L 30.625,2.910 L 30.199,6.785 L 29.281,10.599 L 27.880,14.289 L 26.014,17.793 L 23.707,21.054 L 20.990,24.014 L 17.903,26.623 L 14.492,28.834 L 10.807,30.608 L 6.906,31.910 L 2.848,32.713 L -1.303,33.000 L -5.480,32.759 L -9.617,31.988 L -13.646,30.694 L -17.502,28.892 L -21.119,26.605 L -24.436,23.865 L -27.398,20.710 L -29.952,17.188 L -32.053,13.351 L -33.661,9.257 L -34.745,4.970 L -35.283,0.557 L -35.259,-3.912 L -34.669,-8.367 L -33.515,-12.734 L -31.811,-16.943 L -29.577,-20.924 L -26.845,-24.610 L -23.653,-27.939 L -20.048,-30.854 L -16.084,-33.303 L -11.821,-35.243 L -7.325,-36.636 L -2.665,-37.455 L 2.084,-37.680 L 6.848,-37.303 L 11.549,-36.323 L 16.112,-34.750 L 20.461,-32.604 L 24.524,-29.913 L 28.233,-26.715 L 31.526,-23.057 L 34.344,-18.994 L 36.638,-14.586 L 38.366,-9.902 L 39.494,-5.015 L 40.000,-0.000 " />
  </g>
</svg>